<svg width="88" height="70" viewBox="0 0 88 70" fill="none" xmlns="http://www.w3.org/2000/svg">
  <path d="M21.3824 0.980275C36.4324 -0.326758 51.5676 -0.326759 66.6176 0.980274L73.8685 1.60999C78.6955 2.02919 82.8296 4.9056 84.9717 9.02006C85.2458 9.54643 85.0404 10.1837 84.5354 10.496L54.4513 29.1019C47.9991 33.0923 39.8634 33.176 33.3303 29.3192L3.0452 11.4404C2.55591 11.1516 2.33132 10.557 2.55183 10.0336C4.51147 5.38296 8.9172 2.06282 14.1315 1.60999L21.3824 0.980275Z" fill="#FFCE00"/>
  <path d="M2.52718 19.4919C1.77837 19.0498 0.822918 19.5255 0.735632 20.3901C-0.482602 32.4567 -0.187756 44.6376 1.62017 56.6489C2.57328 62.9811 7.74613 67.8355 14.1315 68.39L21.3824 69.0197C36.4324 70.3268 51.5676 70.3268 66.6176 69.0197L73.8685 68.39C80.2539 67.8355 85.4267 62.9811 86.3798 56.6489C88.2404 44.2876 88.4985 31.7466 87.154 19.3355C87.0597 18.4648 86.088 17.9978 85.3427 18.4588L58.242 35.2195C49.5126 40.6183 38.5054 40.7316 29.6666 35.5136L2.52718 19.4919Z" fill="#FFCE00"/>
</svg>
