<svg width="180" height="32" viewBox="0 0 180 32" fill="none" xmlns="http://www.w3.org/2000/svg">
<path d="M88.708 29.5162C87.5457 27.0878 86.3574 24.6712 85.1751 22.2522C84.8093 21.5041 84.3243 20.8386 83.7131 20.2698C82.9532 19.563 83.011 18.9353 83.9101 18.3913C85.4819 17.4414 86.5958 16.1021 87.2707 14.4065C88.3115 11.7881 88.3315 9.10712 87.5646 6.42972C86.735 3.53284 84.7656 1.77938 81.8687 1.02064C80.7383 0.725645 79.5819 0.610006 78.4279 0.599386C74.6342 0.566346 70.8394 0.581686 67.0445 0.589946C65.9719 0.591126 65.599 0.984063 65.5978 2.05667C65.5967 6.71646 65.5978 11.3751 65.5978 16.0348C65.5978 20.6935 65.5967 25.3532 65.5978 30.0118C65.5978 31.1069 65.9719 31.4927 67.0846 31.5069C68.2446 31.5222 69.4045 31.4986 70.5644 31.5152C71.9379 31.5364 72.5846 31.3736 72.5421 29.5882C72.476 26.8176 72.5232 24.0446 72.5267 21.2728C72.5267 20.5377 72.7899 20.1448 73.3445 20.0091C75.1133 19.5748 76.6485 20.3406 77.4155 21.9962C78.7288 24.8305 80.0787 27.6495 81.3838 30.4886C81.7153 31.2095 82.2121 31.5269 82.9933 31.5175C84.4671 31.4974 85.9421 31.5175 87.4159 31.5093C88.787 31.5022 89.2932 30.7399 88.708 29.5162ZM81.3696 11.0565C81.1761 12.8052 80.1589 13.6607 78.219 13.7527C76.6319 13.8271 75.039 13.787 73.4483 13.774C72.8489 13.7704 72.5185 13.4259 72.5008 12.8029C72.4772 11.978 72.4949 11.1532 72.4949 10.3284C72.4937 9.5036 72.4855 8.67878 72.4961 7.85397C72.5032 7.31353 72.7627 6.90054 73.3173 6.88284C75.0637 6.82856 76.8196 6.72472 78.5541 6.9324C80.8634 7.2097 81.6375 8.64574 81.3696 11.0565Z" fill="white"/>
<path d="M54.9237 19.3195C54.9237 22.8394 54.9249 26.3581 54.9226 29.878C54.9226 31.0958 54.5155 31.5052 53.2942 31.5111C52.0162 31.517 50.7383 31.5159 49.4604 31.5111C48.0999 31.5064 47.6998 31.1123 47.6987 29.7518C47.6951 22.8512 47.6975 15.9494 47.6975 9.04883C47.6975 8.85177 47.6998 8.6559 47.6963 8.45884C47.6845 7.5998 47.347 7.25053 46.4715 7.24463C44.7215 7.23283 42.9716 7.24227 41.2217 7.23991C40.1845 7.23873 39.7797 6.84697 39.775 5.82982C39.7679 4.57195 39.7679 3.3129 39.775 2.05503C39.7809 1.06383 40.2187 0.594197 41.2146 0.593017C47.9382 0.583578 54.663 0.583578 61.3866 0.593017C62.4474 0.594197 62.8427 1.01781 62.8462 2.06801C62.8509 3.32588 62.8509 4.58493 62.8462 5.8428C62.8415 6.86585 62.4733 7.23873 61.468 7.23991C59.7381 7.24345 58.0071 7.23755 56.2772 7.24227C55.2789 7.24463 54.9249 7.59508 54.9249 8.58509C54.9226 12.1628 54.9237 15.7417 54.9237 19.3195Z" fill="white"/>
<path d="M41.7761 31.2748C41.107 31.2737 40.4391 31.2725 39.7701 31.2748C39.0585 31.276 38.5936 30.9633 38.3458 30.2742C37.8078 28.7768 37.2225 27.2959 36.6844 25.7973C36.459 25.1707 36.072 24.9111 35.4029 24.9147C32.1591 24.9336 28.9142 24.9218 25.6704 24.9241C24.8621 24.9253 24.632 25.0893 24.3535 25.8315C23.8107 27.2865 23.2691 28.7414 22.7263 30.1951C22.4207 31.0141 22.095 31.2642 21.243 31.2713C19.8861 31.2831 18.5291 31.2878 17.1733 31.2701C15.9579 31.2548 15.4811 30.5173 15.9354 29.3821C16.4605 28.0676 17.0033 26.7614 17.5131 25.441C17.67 25.0362 17.8966 24.8805 18.3414 24.864C22.4691 24.7094 25.7907 22.9524 28.2829 19.6826C28.8221 18.9746 29.3814 18.6395 30.2594 18.715C30.9225 18.7728 31.5951 18.728 32.2642 18.7256C33.4477 18.7209 33.8489 18.1699 33.4465 17.0748C32.6665 14.9532 31.8759 12.8363 31.0865 10.7194C30.86 10.1117 30.6664 9.49693 30.5107 8.86445C29.9962 6.76407 29.0392 4.8808 27.5489 3.3067C26.9507 2.6754 26.9341 2.06771 27.2504 1.32077C27.5584 0.593897 28.0893 0.336659 28.8292 0.344919C29.8711 0.356718 30.9131 0.343738 31.955 0.348458C33.0418 0.354358 33.3179 0.537257 33.7273 1.54615C36.0743 7.33872 38.4178 13.1325 40.7636 18.9251C42.1655 22.386 43.5661 25.8469 44.9738 29.3066C45.4742 30.5373 45.001 31.2583 43.664 31.2725C43.0339 31.2807 42.405 31.276 41.7761 31.2748Z" fill="white"/>
<path d="M99.29 16.0711C99.29 20.6719 99.2912 25.2727 99.29 29.8735C99.29 31.1031 98.8971 31.5031 97.6734 31.509C96.3566 31.5149 95.0385 31.5172 93.7216 31.5078C92.6172 31.4995 92.1688 31.0629 92.1676 29.9703C92.1629 20.6708 92.1629 11.3701 92.1676 2.07056C92.1676 1.04987 92.6219 0.600291 93.6532 0.589671C95.0102 0.575511 96.366 0.579052 97.723 0.587312C98.8841 0.594392 99.2888 1.00149 99.29 2.1508C99.2912 6.7917 99.29 11.4314 99.29 16.0711Z" fill="white"/>
<path d="M116.145 31.9794C114.453 31.7056 112.786 31.3375 111.242 30.5622C106.142 28.0005 103.138 23.8669 102.311 18.2502C101.139 10.2982 106.389 2.04183 115.477 0.625845C121.436 -0.302808 126.478 1.66778 130.313 6.43848C130.436 6.59188 130.544 6.7559 130.654 6.91874C130.876 7.24559 130.778 7.48985 130.48 7.72113C130.201 7.93707 129.983 8.12823 129.618 7.82143C129.101 7.38837 128.665 6.88452 128.218 6.3901C125.528 3.42124 122.089 1.88018 118.183 1.86956C112.835 1.85422 108.532 4.12098 105.7 8.80082C104.324 11.0747 103.442 13.5385 103.565 16.2336C103.933 24.3177 109.123 29.2347 115.633 30.3321C121.012 31.2395 125.588 29.4483 129.071 25.1378C129.17 25.0163 129.269 24.8935 129.381 24.7838C129.722 24.4487 130.11 24.3802 130.489 24.6894C130.878 25.008 130.77 25.3773 130.513 25.7337C129.283 27.4352 127.716 28.7521 125.921 29.8224C124.095 30.9115 122.129 31.6159 120.038 31.9794C118.741 31.9794 117.443 31.9794 116.145 31.9794Z" fill="white"/>
<path d="M106.116 15.1243C106.141 21.3771 109.38 25.9921 114.368 27.4741C118.576 28.7249 123.607 27.9508 126.774 23.9849C126.934 23.7855 127.096 23.5872 127.271 23.4008C127.74 22.8993 127.961 22.9146 128.44 23.3784C128.751 23.6793 128.711 23.9176 128.469 24.2374C126.315 27.0835 123.489 28.8583 119.962 29.381C116.207 29.9379 112.764 29.0412 109.748 26.7272C106.788 24.4557 105.162 21.409 104.771 17.6991C104.426 14.4317 105.08 11.3897 106.927 8.66271C109.221 5.27496 112.502 3.49317 116.521 3.03061C120.767 2.5421 124.387 3.86605 127.373 6.91279C127.824 7.37416 128.199 7.91106 128.616 8.40783C128.857 8.69457 128.744 8.90697 128.497 9.10285C128.252 9.29873 128.063 9.65862 127.657 9.34239C127.358 9.10875 127.131 8.81493 126.882 8.53763C125.141 6.60245 123.07 5.23248 120.481 4.6885C116.432 3.83891 112.848 4.81358 109.857 7.6019C107.448 9.84742 106.216 12.7254 106.116 15.1243Z" fill="white"/>
<path d="M117.528 27.0584C112.413 27.0584 107.727 22.6393 107.241 17.1016C106.768 11.7138 110.434 6.86048 115.463 5.69465C119.593 4.7365 123.856 6.22683 126.214 9.4954C126.272 9.57564 126.343 9.64998 126.379 9.73848C126.478 9.97684 126.874 10.2423 126.432 10.4654C126.078 10.6447 125.705 11.0754 125.263 10.5019C123.791 8.59271 121.821 7.54369 119.468 7.0658C114.139 5.98375 109.432 10.1763 108.755 14.6732C107.971 19.8746 111.335 24.6005 116.52 25.4064C119.905 25.9327 122.747 24.781 124.988 22.1874C125.57 21.5148 125.851 21.4357 126.331 21.8617C126.662 22.1555 126.587 22.4175 126.38 22.7349C125.379 24.2665 123.981 25.3191 122.34 26.066C120.929 26.7079 119.451 27.082 117.528 27.0584Z" fill="white"/>
<path d="M117.79 7.95313C120.48 7.95195 122.54 8.97854 124.176 10.8925C124.429 11.1887 124.744 11.5061 124.266 11.8849C123.873 12.1964 123.566 12.3262 123.144 11.827C120.678 8.91128 116.51 8.97382 114.257 10.483C111.844 12.0996 110.735 14.8313 111.352 17.7895C111.888 20.3619 114.115 22.5142 116.814 22.9319C119.318 23.319 121.414 22.4304 123.127 20.6132C123.465 20.2557 123.726 20.0126 124.174 20.4516C124.592 20.861 124.626 21.0829 124.16 21.595C121.828 24.1603 118.959 25.1043 115.632 24.1025C112.277 23.0924 110.257 20.7419 109.778 17.2609C109.16 12.7675 112.222 8.76496 116.708 8.03337C117.114 7.96729 117.531 7.97083 117.79 7.95313Z" fill="white"/>
<path d="M132.665 31.9776C132.653 31.8017 132.632 31.6248 132.632 31.4489C132.631 21.2444 132.634 11.0386 132.621 0.834071C132.62 0.273575 132.789 0.074156 133.36 0.081236C133.929 0.0883159 133.988 0.390394 133.999 0.83289C134.235 10.4062 134.106 19.9806 134.082 29.5539C134.081 30.1415 134.004 30.7303 134.003 31.318C134.003 31.6979 133.857 31.9091 133.491 31.9776C133.215 31.9776 132.94 31.9776 132.665 31.9776Z" fill="white"/>
<path d="M137.969 16.0486C137.969 10.9959 137.968 5.94319 137.97 0.891644C137.97 0.12583 138.121 0.00901162 138.884 0.0975109C139.173 0.130551 139.279 0.26507 139.318 0.544728C139.417 1.24918 139.406 1.956 139.42 2.66281C139.592 10.9959 139.557 19.3302 139.497 27.6633C139.489 28.8008 139.443 29.9407 139.411 31.0794C139.39 31.8617 139.337 31.8664 138.62 31.9136C137.934 31.9584 137.966 31.5431 137.966 31.0888C137.97 26.075 137.969 21.0624 137.969 16.0486Z" fill="white"/>
<path d="M140.563 15.9567C140.563 11.3394 140.561 6.72088 140.568 2.10357C140.569 1.65399 140.618 1.20324 140.662 0.754841C140.702 0.334765 140.945 0.125907 141.371 0.132987C141.815 0.140067 141.889 0.403204 141.918 0.792601C142.077 2.91186 142.001 5.03349 142.019 7.15393C142.058 11.7311 142.149 16.3083 142.084 20.8843C142.037 24.1836 142.077 27.484 141.989 30.7821C141.985 30.9779 141.959 31.1726 141.943 31.3685C141.919 31.693 141.833 31.9302 141.42 31.9066C141.021 31.8842 140.713 31.7803 140.666 31.3355C140.616 30.867 140.568 30.3962 140.568 29.9266C140.561 25.2703 140.563 20.6141 140.563 15.9567Z" fill="white"/>
<path d="M136.682 16.0241C136.682 21.0344 136.683 26.0446 136.68 31.056C136.68 31.7841 136.564 31.8985 135.952 31.8985C135.571 31.8985 135.354 31.7286 135.302 31.364C135.263 31.0938 135.24 30.8177 135.24 30.5439C135.235 20.8574 135.234 11.1696 135.234 1.4831C135.234 1.24828 135.244 1.0111 135.275 0.778643C135.336 0.303106 135.633 0.115488 136.096 0.129648C136.6 0.143808 136.686 0.442345 136.686 0.875402C136.678 5.92458 136.68 10.9749 136.682 16.0241Z" fill="white"/>
<path d="M169.67 31.9021C168.693 31.9139 168.694 31.9127 168.309 30.9286C164.726 21.7813 161.143 12.6328 157.551 3.48787C157.445 3.21884 157.449 2.73976 157.105 2.761C156.785 2.77988 156.664 3.2212 156.541 3.52917C155.17 7.00189 153.793 10.4722 152.437 13.9497C151.662 15.938 151.025 17.1545 150.264 19.1475C150.194 19.3304 150.018 19.4508 149.822 19.4508H149.09C148.757 19.4508 148.529 19.1169 148.651 18.8065C151.055 12.6611 153.334 7.29098 155.736 1.14323C155.936 0.634655 156.144 0.157939 156.734 0.00100036H157.206C157.82 -0.00253961 158.039 0.389217 158.242 0.908413C162.191 11.0091 166.158 21.104 170.122 31.2C170.385 31.8726 170.368 31.8938 169.67 31.9021Z" fill="white"/>
<path d="M166.172 0.00118024C166.836 0.169919 167.055 0.719794 167.272 1.27675C169.188 6.17489 171.133 11.0636 173.021 15.9724C174.845 20.7171 176.723 25.4406 178.602 30.1641C178.775 30.5995 178.891 31.0585 179.034 31.5058C179.124 31.9093 178.969 32.0497 178.561 31.9848C178.331 31.9483 178.09 31.9778 177.854 31.9778C177.49 31.7571 177.366 31.3807 177.217 31.0161C174.439 24.2783 171.929 17.4344 169.223 10.6683C167.904 7.36786 166.639 4.04501 165.332 0.739855C165.066 0.06726 165.668 0.191159 165.935 0C166.014 0.00117999 166.093 0.00118024 166.172 0.00118024Z" fill="white"/>
<path d="M165.235 24.8076C165.21 25.1675 165.071 25.3681 164.671 25.4177C163.515 25.5616 162.357 25.472 161.201 25.4885C160.899 25.4932 159.071 25.4932 156.764 25.4908C156.227 25.4908 155.665 25.4908 155.09 25.4897C154.687 25.4885 154.279 25.4885 153.868 25.4873C153.295 25.4861 152.717 25.4849 152.148 25.4838C152.06 25.4838 151.886 25.4826 151.688 25.4826C151.21 25.4814 150.779 25.7693 150.596 26.2106C150.532 26.364 150.483 26.4856 150.465 26.5292C150.273 27.0189 150.083 27.5098 149.895 28.0019C149.518 28.9824 149.146 29.9654 148.778 30.9507C148.63 31.3471 148.436 31.6976 148.119 31.9784H147.529C146.745 31.7117 146.745 31.7117 147.049 30.9341C147.431 29.9559 147.815 28.9789 148.197 28.0007C148.39 27.5098 148.582 27.0189 148.774 26.528C148.912 26.1764 149.049 25.8248 149.186 25.4743H149.187C149.322 25.1298 149.384 24.9893 149.512 24.6436C149.747 24.004 150.354 23.9144 150.919 23.9167H154.479C154.892 23.9167 155.302 23.9179 155.704 23.9179H157.383C159.537 23.9191 161.21 23.9203 161.522 23.9203C162.485 23.9191 163.446 23.9049 164.408 23.9238C165.031 23.9368 165.278 24.2271 165.235 24.8076Z" fill="white"/>
<path d="M157.793 7.90434C156.218 11.9128 154.765 15.1436 153.189 19.152C153.118 19.3326 152.943 19.4517 152.75 19.4517H152.062C151.729 19.4517 151.501 19.1166 151.623 18.8075C153.366 14.3613 154.984 10.6915 156.728 6.24645C156.829 5.98922 156.826 5.5538 157.155 5.54318C157.478 5.53256 157.622 5.92785 157.77 6.19689C158.078 6.75385 158.017 7.3344 157.793 7.90434Z" fill="white"/>
<path d="M159.307 11.646C158.303 14.1853 157.419 15.9458 156.423 18.4887C156.336 18.7094 156.25 18.93 156.164 19.1519C156.093 19.3324 155.918 19.4516 155.725 19.4516H155.019C154.686 19.4516 154.459 19.1177 154.579 18.8073C155.84 15.5801 156.975 13.1316 158.238 9.9043C158.316 9.70724 158.341 9.42168 158.563 9.37448C158.819 9.3202 158.965 9.58098 159.112 9.75916C159.594 10.3409 159.57 10.9816 159.307 11.646Z" fill="white"/>
<path d="M154.886 28.5273C155.217 28.5273 155.446 28.8613 155.326 29.1704C155.091 29.7734 154.856 30.3764 154.622 30.9782C154.478 31.3487 154.306 31.6968 154.018 31.9776H153.428C152.679 31.6626 152.674 31.6614 152.977 30.8873C153.247 30.2018 153.514 29.515 153.782 28.8271C153.853 28.6465 154.028 28.5273 154.222 28.5273H154.886Z" fill="white"/>
<path d="M160.706 15.5776C160.127 17.0302 159.674 17.7028 159.094 19.1542C159.022 19.3335 158.849 19.4515 158.656 19.4515H157.965C157.632 19.4515 157.404 19.1164 157.525 18.8072C158.291 16.8485 158.933 15.6685 159.701 13.7109C159.78 13.5079 159.771 13.1763 160.063 13.1681C160.307 13.1622 160.442 13.4253 160.576 13.6153C161.025 14.2395 160.975 14.9027 160.706 15.5776Z" fill="white"/>
<path d="M172.241 31.9021C171.816 31.9953 171.576 31.7758 171.394 31.3109C167.433 21.1712 163.456 11.0386 159.49 0.901338C159.403 0.679499 159.15 0.405741 159.551 0.200423C159.981 -0.0202356 160.674 0.0446641 160.908 0.373882C161.055 0.5792 161.161 0.817558 161.255 1.05356C163.458 6.52045 165.597 12.0145 167.725 17.5109C169.343 21.6881 171.008 25.8475 172.649 30.0164C172.779 30.3456 172.913 30.676 173.002 31.0171C173.209 31.7982 173.115 31.9056 172.241 31.9021Z" fill="white"/>
<path d="M175.235 31.8955C174.8 31.9922 174.537 31.7763 174.346 31.2854C170.396 21.1646 166.428 11.0497 162.47 0.932499C162.386 0.717741 162.166 0.477023 162.497 0.261084C162.893 0.00266638 163.585 0.0321661 163.87 0.336604C164.091 0.572602 164.19 0.87586 164.303 1.1685C165.798 5.03533 167.239 8.9234 168.797 12.7643C171.16 18.5899 173.3 24.5052 175.726 30.306C175.832 30.5585 175.931 30.8205 175.983 31.0872C176.132 31.8424 176.078 31.8955 175.235 31.8955Z" fill="white"/>
<path d="M165.933 27.9948C164.48 28.0078 163.026 28.0019 161.572 28.0019C161.024 28.0019 158.629 28.0019 155.782 28.0031H153.453C153.112 28.0031 152.806 28.212 152.683 28.5294C152.353 29.3778 152.024 30.2274 151.693 31.0758C151.556 31.4298 151.397 31.7614 151.069 31.9797H150.597C150.485 31.9431 150.376 31.8959 150.262 31.8723C149.816 31.7838 149.762 31.5478 149.922 31.149C150.343 30.1023 150.754 29.0533 151.164 28.0031C151.287 27.6881 151.41 27.3718 151.533 27.0568C151.657 26.7393 151.961 26.5305 152.302 26.5305H154.683C155.243 26.5305 155.803 26.5293 156.358 26.5293C160.337 26.5293 164.053 26.5293 165.139 26.5328C165.815 26.5352 166.316 27.0143 166.407 27.6916C166.463 28.1294 166.125 27.9937 165.933 27.9948Z" fill="white"/>
<path d="M163.546 22.5784C162.879 22.5831 162.212 22.5796 161.546 22.5796H149.689C149.347 22.5796 149.041 22.7896 148.918 23.1094C148.815 23.3785 148.711 23.6487 148.607 23.9177C148.408 24.4345 148.208 24.9526 148.008 25.4694C147.871 25.8222 147.734 26.175 147.596 26.5279C147.405 27.0199 147.212 27.5108 147.019 28.0005C146.626 28.9976 146.228 29.9923 145.826 30.9847C145.659 31.3953 145.479 31.7788 145.052 31.9782H144.58C143.767 31.7411 143.767 31.7411 144.051 31.0165C144.445 30.0112 144.838 29.0047 145.232 27.9993C145.423 27.5084 145.616 27.0175 145.808 26.5255C145.947 26.1703 146.086 25.8151 146.226 25.4588C146.426 24.9467 146.627 24.4334 146.828 23.9201C147.003 23.474 147.178 23.0268 147.353 22.5796C147.478 22.2586 147.604 21.9377 147.729 21.6167C147.853 21.3005 148.157 21.0928 148.496 21.0916C148.855 21.0905 149.256 21.0905 149.691 21.0905C150.072 21.0893 150.478 21.0893 150.903 21.0893C151.444 21.0881 152.015 21.0881 152.604 21.0881H152.605C153.018 21.0881 153.439 21.0869 153.865 21.0881C154.435 21.0869 155.012 21.0869 155.584 21.0869H156.813C157.394 21.0869 157.963 21.0869 158.507 21.0881C160.875 21.0881 162.764 21.0905 163.152 21.0928C163.589 21.0964 163.962 21.2427 164.136 21.6946C164.369 22.3047 164.191 22.5737 163.546 22.5784Z" fill="white"/>
<path d="M18.3078 18.1065C19.9539 18.1065 21.358 17.5307 22.5203 16.3755C23.6815 15.2203 24.2608 13.6875 24.2608 11.7783C24.2608 10.2313 23.6626 8.85187 22.4649 7.6412C21.266 6.43053 19.8819 5.8252 18.3078 5.8252H7.16984C6.18691 5.8252 5.38923 6.62169 5.38923 7.6058V11.6638C5.38923 12.0319 5.68777 12.3317 6.05711 12.3317H6.07009C6.43824 12.3317 6.73796 12.0331 6.73796 11.6638V7.8418C6.73796 7.47364 7.0365 7.17393 7.40584 7.17393H18.3078C19.5066 7.17393 20.5734 7.64592 21.5103 8.58638C22.4448 9.53037 22.9145 10.5935 22.9145 11.7771C22.9145 13.3642 22.4672 14.5902 21.5752 15.4551C20.6831 16.3224 19.5951 16.7566 18.309 16.7566H4.47592C3.49299 16.7566 2.69531 17.5531 2.69531 18.5372V30.7667C2.69531 31.1348 2.99385 31.4345 3.36319 31.4345H3.37617C3.74432 31.4345 4.04404 31.136 4.04404 30.7667V18.7744C4.04404 18.4063 4.34258 18.1065 4.71192 18.1065H18.3078Z" fill="white"/>
<path d="M18.3099 15.411C20.4823 15.411 21.5679 14.2004 21.5679 11.779C21.5679 10.907 21.2457 10.1459 20.6038 9.49575C19.9607 8.84558 19.1949 8.52344 18.3099 8.52344H9.86944C8.88651 8.52344 8.08884 9.31993 8.08884 10.304V11.6646C8.08884 12.0327 8.38737 12.3324 8.75671 12.3324H8.76733C9.13549 12.3324 9.43521 12.0339 9.43521 11.6646V10.5377C9.43521 10.1695 9.73374 9.86981 10.1031 9.86981H18.3099C18.8456 9.86981 19.2999 10.0527 19.6669 10.4126C20.0339 10.7749 20.2191 11.2315 20.2191 11.779C20.2191 12.6286 20.0528 13.221 19.7141 13.5596C19.3778 13.8959 18.9082 14.0647 18.3099 14.0647H1.78061C0.797673 14.0647 0 14.8612 0 15.8453V30.7698C0 31.138 0.298537 31.4377 0.667874 31.4377H0.680854C1.04901 31.4377 1.34873 31.1391 1.34873 30.7698V16.0789C1.34873 15.7108 1.64727 15.411 2.0166 15.411H18.3099Z" fill="white"/>
<path d="M18.3078 20.8014C19.8429 20.8014 21.2695 20.4191 22.5852 19.6509C23.9021 18.8828 24.9594 17.8043 25.7582 16.413C26.5571 15.0195 26.9571 13.476 26.9571 11.778C26.9571 10.2806 26.5606 8.86464 25.7689 7.53007C24.9747 6.1955 23.9104 5.12643 22.5758 4.32757C21.2412 3.52872 19.8182 3.12988 18.3078 3.12988H4.47592C3.49299 3.12988 2.69531 3.92638 2.69531 4.91049V11.6636C2.69531 12.0317 2.99385 12.3315 3.36319 12.3315H3.37617C3.74432 12.3315 4.04404 12.0329 4.04404 11.6636V5.14413C4.04404 4.77597 4.34258 4.47625 4.71192 4.47625H18.3078C20.2418 4.47625 21.9421 5.21257 23.4101 6.68638C24.8768 8.159 25.6084 9.85701 25.6084 11.778C25.6084 13.2648 25.2674 14.5994 24.5889 15.7853C23.908 16.9712 23.0159 17.8798 21.9115 18.5087C20.8058 19.1388 19.6034 19.4539 18.3066 19.4539H7.16866C6.18573 19.4539 5.38805 20.2504 5.38805 21.2345V30.7665C5.38805 31.1346 5.68659 31.4343 6.05593 31.4343H6.06891C6.43706 31.4343 6.73678 31.1358 6.73678 30.7665V21.4681C6.73678 21.1 7.03532 20.8002 7.40466 20.8002H18.3078V20.8014Z" fill="white"/>
<path d="M28.1003 6.18231C27.0631 4.43592 25.6731 3.03999 23.9255 1.99924C22.1791 0.956127 20.3053 0.43457 18.3087 0.43457H1.78061C0.797673 0.43457 0 1.23106 0 2.21518V11.6645C0 12.0327 0.298537 12.3324 0.667874 12.3324H0.680854C1.04901 12.3324 1.34873 12.0339 1.34873 11.6645V2.45118C1.34873 2.08302 1.64727 1.7833 2.0166 1.7833H18.3099C20.0705 1.7833 21.7213 2.24114 23.2612 3.15799C24.8034 4.07484 26.0294 5.30557 26.9392 6.84782C27.8513 8.38771 28.308 10.0326 28.308 11.779C28.308 13.241 28.0389 14.6157 27.502 15.9066C26.9663 17.1999 26.2454 18.2961 25.3391 19.2023C24.4329 20.1086 23.3697 20.8248 22.1484 21.3558C20.9248 21.8856 19.6445 22.1499 18.3099 22.1499H9.86944C8.88651 22.1499 8.08884 22.9464 8.08884 23.9305V30.7686C8.08884 31.1368 8.38737 31.4365 8.75671 31.4365H8.76733C9.13549 31.4365 9.43521 31.1379 9.43521 30.7686V24.1665C9.43521 23.7984 9.73374 23.4987 10.1031 23.4987H18.3099C19.8321 23.4987 21.2811 23.2273 22.6535 22.6845C24.027 22.1417 25.2306 21.3759 26.2678 20.3906C27.3026 19.4053 28.1263 18.1675 28.7375 16.6748C29.3499 15.1845 29.6544 13.5525 29.6544 11.779C29.6544 9.79662 29.1352 7.92869 28.1003 6.18231Z" fill="white"/>
</svg>
